<svg id="Dreamforce_2016" data-name="Dreamforce 2016" xmlns="http://www.w3.org/2000/svg" viewBox="0 0 100 100"><defs><style>.cls-1{fill:#394c5d;}.cls-2{fill:#fff;}</style></defs><title>SVG Icon</title><g id="Zuora"><rect class="cls-1" width="100" height="100"/><path id="Zuora-2" data-name="Zuora" class="cls-2" d="M91.6,88.1h0C87.5,85,86,79.5,84.1,72.9a1.1,1.1,0,0,0-1.1-.8H41.8a1.1,1.1,0,0,1-.9-1.9L82.7,21.5a2,2,0,0,0,.4-.8V12.1a.7.7,0,0,0-.1-.5c-.4-1.1-1.5-1.8-4-1.8H12.4a3.7,3.7,0,0,0-3.7,3.7V24.2a3.7,3.7,0,0,0,3.7,3.7H51a1.1,1.1,0,0,1,.9,1.9L14.2,73.9c-3.4,3.9-6.9,7.7-6.1,11.9a7.3,7.3,0,0,0,1.6,3.4,2.4,2.4,0,0,0,1.9.9H90.9A1.2,1.2,0,0,0,91.6,88.1Z"/></g></svg>